<svg xmlns="http://www.w3.org/2000/svg"  viewBox="0 0 64 64" width="64px" height="64px" baseProfile="basic"><path fill="#9c34c2" d="M26,35c0,11.598-3.649,14-10,14S3,45.598,3,34s8.649-24,15-24S26,23.402,26,35z"/><path fill="#9c34c2" d="M38,35c0,11.598,3.649,14,10,14s13-3.402,13-15s-8.649-24-15-24S38,23.402,38,35z"/><ellipse cx="32" cy="61" opacity=".3" rx="20" ry="3"/><path fill="#68e5fd" d="M50,39H14l-1.852-11.633C12.148,27.367,12,4,32,4h0c20,0,19.867,23.35,19.867,23.35L50,39z"/><circle cx="14.5" cy="34.5" r="7.5" fill="#68e5fd"/><path fill="#68e5fd" d="M48,34H16l-3,7.842C13,41.842,23.566,55,26.082,55h11.854C40.443,55,49,42,49,42L48,34z"/><path fill="#a0effe" d="M32,43h-7v10c0,1.025,1.115,2.998,3.525,2.998c1.195,0,2.428-0.3,3.475-0.998	c1.047,0.698,2.28,0.998,3.475,0.998C37.885,55.998,39,54.025,39,53V43H32z"/><circle cx="49.5" cy="34.5" r="7.5" fill="#68e5fd"/><path d="M38.024,54.987C40.632,54.71,49,42,49,42l-0.006-0.047c-2.238-1.524-5.292-1-6.875,1.215	c-3.062,4.28-4.744,6.113-5.504,6.847C34.034,50.211,32,52.368,32,55c1.047,0.698,2.28,0.998,3.475,0.998	C36.608,55.998,37.445,55.556,38.024,54.987z" opacity=".15"/><path fill="#fd3c4f" d="M12.173,27.373c-1.097,0.358-2.081,0.961-2.89,1.746c2.212,1.038,3.751,3.281,3.751,5.881 c0,2.309-1.214,4.336-3.034,5.489c0.895,0.674,1.942,1.155,3.086,1.373c1.812-1.731,2.948-4.164,2.948-6.862 C16.033,31.874,14.509,29.105,12.173,27.373z"/><path fill="#fd3c4f" d="M7.827,31.088C7.302,32.112,7,33.27,7,34.5c0,1.582,0.492,3.047,1.328,4.257 C9.881,38.207,11,36.741,11,35C11,33.075,9.639,31.469,7.827,31.088z"/><path fill="#fd3c4f" d="M51.861,27.373c1.097,0.358,2.081,0.961,2.89,1.746C52.539,30.157,51,32.399,51,35 c0,2.309,1.214,4.336,3.034,5.489c-0.895,0.674-1.942,1.155-3.086,1.373C49.136,40.131,48,37.698,48,35 C48,31.874,49.524,29.105,51.861,27.373z"/><path fill="#fd3c4f" d="M56.206,31.088c0.525,1.024,0.827,2.182,0.827,3.412c0,1.582-0.492,3.047-1.328,4.257 c-1.553-0.55-2.672-2.016-2.672-3.757C53.033,33.075,54.394,31.469,56.206,31.088z"/><path fill="#9c34c2" d="M27,27.5c0,1.933-1.567,3.5-3.5,3.5S20,29.433,20,27.5c0-1.761,1.305-3.204,2.997-3.449 c-1.809-0.979-3.269-1.317-5.578,0.171C17.153,24.931,17,25.697,17,26.5c0,3.59,2.91,6.5,6.5,6.5c3.431,0,6.235-2.66,6.476-6.03 c-1.201-0.08-2.28-0.417-3.27-0.866C26.893,26.532,27,27.003,27,27.5z"/><path fill="#fd3c4f" d="M20,27.5c0,1.933,1.567,3.5,3.5,3.5s3.5-1.567,3.5-3.5c0-0.497-0.107-0.968-0.293-1.396 c-0.866-0.394-1.669-0.863-2.423-1.312c-0.456-0.271-0.879-0.521-1.286-0.741C21.305,24.296,20,25.739,20,27.5z M23.5,26 c0.828,0,1.5,0.672,1.5,1.5S24.328,29,23.5,29S22,28.328,22,27.5S22.672,26,23.5,26z"/><circle cx="23.5" cy="27.5" r="1.5" fill="#9c34c2"/><path fill="#9c34c2" d="M41.016,24.051c1.693,0.246,2.997,1.689,2.997,3.449c0,1.933-1.567,3.5-3.5,3.5s-3.5-1.567-3.5-3.5 c0-0.497,0.107-0.968,0.293-1.396c-0.989,0.45-2.068,0.786-3.27,0.866c0.242,3.37,3.045,6.03,6.476,6.03c3.59,0,6.5-2.91,6.5-6.5 c0-0.803-0.153-1.569-0.419-2.279C44.285,22.734,42.825,23.072,41.016,24.051z"/><path fill="#fd3c4f" d="M40.514,31c1.933,0,3.5-1.567,3.5-3.5c0-1.761-1.305-3.204-2.997-3.449 c-0.407,0.22-0.83,0.47-1.286,0.741c-0.755,0.449-1.557,0.918-2.423,1.312c-0.187,0.428-0.293,0.899-0.293,1.396 C37.014,29.433,38.581,31,40.514,31z M40.514,26c0.828,0,1.5,0.672,1.5,1.5s-0.672,1.5-1.5,1.5s-1.5-0.672-1.5-1.5 S39.685,26,40.514,26z"/><circle cx="40.514" cy="27.5" r="1.5" fill="#9c34c2"/><path fill="#fd3c4f" d="M31.95,45c-4.325,0-9.204-1.585-11.547-3.986c-0.971-0.995-0.04-2.643,1.317-2.339	C24.313,39.255,28.358,40,32.05,40c3.625,0,7.641-0.743,10.225-1.323c1.358-0.305,2.29,1.345,1.317,2.34	C41.242,43.417,36.345,45,31.95,45z"/><path fill="#68e5fd" d="M37,39l-3.164,2.393C33.315,41.787,32.68,42,32.027,42l0,0c-0.645,0-1.273-0.208-1.79-0.593L27,39	l3-12h4L37,39z"/><path fill="#fff" d="M14.394,21.119c1.983,0,3.86-1.188,4.643-3.141C21.458,11.937,25.698,9,32,9	c2.575,0,4.671-1.954,4.945-4.456C35.45,4.197,33.81,4,32,4c-13.061,0-17.528,9.964-19.056,16.879	C13.425,21.026,13.911,21.119,14.394,21.119z" opacity=".3"/><path fill="none" stroke="#fff" stroke-linecap="round" stroke-linejoin="round" stroke-miterlimit="10" stroke-width="3" d="M21.407,11.481c2.006-2.009,4.457-3.244,7.435-3.736"/></svg>